<?xml version="1.0" encoding="UTF-8"?>
<svg id="Layer_1" data-name="Layer 1" xmlns="http://www.w3.org/2000/svg" viewBox="0 0 512 512">
  <defs>
    <style>
      .cls-1 {
        fill: #438f9f;
      }

      .cls-2 {
        fill: #82cfc9;
      }

      .cls-3 {
        fill: #3e5b67;
      }
    </style>
  </defs>
  <path class="cls-1" d="m328.93,390.3c2.07-4.62,4.75-7.94,6.93-11.54,11.27-18.62,20.44-38.17,26.25-59.18,3.73-13.48,5.9-27.16,6.38-41.27,1.36-40.07-13.78-73.84-37.96-104.56-15.59-19.81-36.28-31.36-59.95-38.46-13.52-4.06-27.33-6.53-41.31-8.13-3.85-.44-7.75-.48-11.62-.73-.98-.06-2.25.19-2.71-.93-.47-1.12.63-1.85,1.24-2.6,14.36-17.78,27.95-36.15,41.85-54.28,6.06-7.9,4.07-6.58,12.44-3.82,24.02,7.91,47.49,17.25,69.99,28.83,22.72,11.69,44.09,25.42,62.04,43.88,10.5,10.8,17.69,23.63,22.77,37.72,5.81,16.11,8.52,32.84,8,49.86-.65,21.51-4.99,42.34-13.68,62.21-8.33,19.04-18.96,36.61-32.11,52.66-16.04,19.56-35.07,35.74-56.34,49.35-.45.29-.97.44-2.2.99Z"/>
  <path class="cls-3" d="m294.14,260.02c.66,2.92,2.5,46.23-26.55,97.1-8.86,15.52-19.56,29.73-32.2,42.28-14.19,14.1-29.61,26.7-47.08,36.81-20.2,11.7-41.39,20.99-63.32,28.76-4.96,1.76-5,1.67-5-3.55,0-82.56.01-165.11-.09-247.67,0-3.73,1.2-5.63,4.67-7,15.25-6.02,30.79-7.49,46.8-3.72,2.02.47,2.93,1.67,3.19,3.65,3.56,27.13,7.1,54.26,10.73,81.39,3.1,23.18,6.3,46.35,9.48,69.52.55,4,.87,3.99,4.43,2.06,14.41-7.83,28.45-16.24,41.43-26.3,15.21-11.78,29.27-24.72,40.15-40.76,12.75-18.81,9.7-27.28,13.37-32.55Z"/>
  <path class="cls-2" d="m248.13,428.7c2.78-3.76,5.4-7.39,8.11-10.95,12.24-16.07,23.35-32.87,33.36-50.42,7.53-13.2,14.41-26.72,19.91-40.88,5.28-13.58,9.41-27.53,10.87-42.07,1.68-16.72-.35-32.91-8.91-47.74-5.06-8.75-12.13-15.89-19.75-22.39-15.71-13.4-33.94-21.75-53.86-27-13.6-3.59-27.39-5.26-41.31-6.41-14.98-1.24-29.91-.38-44.86.95-14.77,1.31-29.37,3.63-43.89,6.44-8.98,1.73-17.83,4.17-26.75,6.27-.75.18-1.67.98-2.25.03-.51-.83.36-1.57.87-2.17,4.97-5.84,10.09-11.57,14.96-17.5,10.98-13.36,21.8-26.85,32.77-40.22,10.08-12.3,20.29-24.5,30.41-36.77,11.47-13.92,22.9-27.87,34.32-41.82,2.23-2.72,4.39-5.49,6.49-8.3,1.14-1.52,2.45-2,4.33-1.6,12.58,2.69,25.05,5.84,37.44,9.29,2.56.71,2.74,1.65.76,3.96-5.76,6.75-11.56,13.47-17.36,20.19-14.08,16.31-28.24,32.55-42.03,49.11-4.91,5.89-10.21,11.46-15.3,17.2-.7.79-2.06,1.58-1.33,2.74.69,1.08,2.04.4,3.08.11,17.77-5.01,35.8-5.23,53.91-2.62,27.87,4.02,52.91,15.05,75.64,31.42,19.37,13.94,33.04,32.31,41.74,54.54,4.45,11.38,7.38,23.08,8.7,35.18,1.26,11.57.29,23.04-1.7,34.5-3.41,19.57-10.85,37.6-20.19,54.97-9.2,17.11-20.58,32.7-32.97,47.59-2.25,2.7-4.57,5.34-6.87,8-1.9,2.2-4.12,4.05-6.82,5.14-9.43,3.81-18.66,8.15-28.46,11.01-.85.25-1.68.79-3.07.24Z"/>
</svg>