<?xml version="1.0" encoding="utf-8"?>
<!-- Generator: Adobe Illustrator 27.3.1, SVG Export Plug-In . SVG Version: 6.00 Build 0)  -->
<svg version="1.1" id="Layer_1" xmlns="http://www.w3.org/2000/svg" xmlns:xlink="http://www.w3.org/1999/xlink" x="0px" y="0px"
	 viewBox="0 0 174 30" style="enable-background:new 0 0 174 30;" xml:space="preserve">
<style type="text/css">
	.st0{fill:#438F9F;}
	.st1{fill:#3E5B67;}
	.st2{fill:#82CFC9;}
	.st3{fill:#042F2E;}
</style>
<g>
	<path class="st0" d="M20.2,24.6c0.1-0.3,0.3-0.6,0.5-0.8c0.8-1.3,1.5-2.7,1.9-4.2c0.3-1,0.4-1.9,0.5-2.9c0.1-2.9-1-5.3-2.7-7.5
		c-1.1-1.4-2.6-2.2-4.3-2.7c-1-0.3-2-0.5-3-0.6c-0.3,0-0.6,0-0.8-0.1c-0.1,0-0.2,0-0.2-0.1s0-0.1,0.1-0.2c1-1.3,2-2.6,3-3.9
		c0.4-0.6,0.3-0.5,0.9-0.3c1.7,0.6,3.4,1.2,5,2.1c1.6,0.8,3.1,1.8,4.4,3.1c0.7,0.8,1.3,1.7,1.6,2.7c0.4,1.2,0.6,2.3,0.6,3.6
		c0,1.5-0.4,3-1,4.4s-1.4,2.6-2.3,3.8c-1.1,1.4-2.5,2.6-4,3.5C20.3,24.5,20.3,24.6,20.2,24.6z"/>
	<path class="st1" d="M17.7,15.3c0,0.2,0.2,3.3-1.9,6.9c-0.6,1.1-1.4,2.1-2.3,3c-1,1-2.1,1.9-3.4,2.6c-1.4,0.8-3,1.5-4.5,2.1
		C5.2,30,5.2,30,5.2,29.6c0-5.9,0-11.8,0-17.7c0-0.3,0.1-0.4,0.3-0.5c1.1-0.4,2.2-0.5,3.3-0.3c0.1,0,0.2,0.1,0.2,0.3
		c0.3,1.9,0.5,3.9,0.8,5.8c0.2,1.7,0.4,3.3,0.7,5c0,0.3,0.1,0.3,0.3,0.1c1-0.6,2-1.2,3-1.9c1.1-0.8,2.1-1.8,2.9-2.9
		C17.7,16.3,17.5,15.7,17.7,15.3z"/>
	<path class="st2" d="M14.4,27.3c0.2-0.3,0.4-0.5,0.6-0.8c0.9-1.1,1.7-2.3,2.4-3.6c0.5-0.9,1-1.9,1.4-2.9s0.7-2,0.8-3
		c0.1-1.2,0-2.4-0.6-3.4c-0.4-0.6-0.9-1.1-1.4-1.6c-1.1-1-2.4-1.6-3.8-1.9c-1-0.3-2-0.4-3-0.5c-1.1-0.1-2.1,0-3.2,0.1
		C6.5,9.8,5.5,10,4.4,10.2c-0.6,0.1-1.3,0.3-1.9,0.4c-0.1,0-0.1,0.1-0.2,0c0-0.1,0-0.1,0.1-0.2C2.8,10,3.1,9.6,3.5,9.2
		c0.8-1,1.6-1.9,2.3-2.9C6.5,5.5,7.3,4.6,8,3.7c0.8-1,1.6-2,2.5-3c0.2-0.2,0.3-0.4,0.5-0.6C11,0,11.1,0,11.2,0
		c0.9,0.2,1.8,0.4,2.7,0.7C14.1,0.8,14.1,0.8,14,1c-0.4,0.5-0.8,1-1.2,1.4c-1,1.2-2,2.3-3,3.5C9.3,6.3,9,6.7,8.6,7.1
		c0,0.1-0.1,0.1-0.1,0.2s0.1,0,0.2,0C10,7,11.3,7,12.6,7.2c2,0.3,3.8,1.1,5.4,2.2c1.4,1,2.4,2.3,3,3.9c0.3,0.8,0.5,1.6,0.6,2.5
		c0.1,0.8,0,1.6-0.1,2.5c-0.2,1.4-0.8,2.7-1.4,3.9c-0.7,1.2-1.5,2.3-2.4,3.4c-0.2,0.2-0.3,0.4-0.5,0.6c-0.1,0.2-0.3,0.3-0.5,0.4
		c-0.7,0.3-1.3,0.6-2,0.8C14.6,27.3,14.5,27.4,14.4,27.3z"/>
</g>
<g>
	<path class="st3" d="M44.7,25.3V4.1h8c6.2,0,10.6,4.4,10.6,10.7c0,6.2-4.2,10.6-10.3,10.6H44.7z M49.3,8.4V21h3.2
		c3.7,0,5.8-2.3,5.8-6.3c0-4-2.3-6.4-6.1-6.4H49.3z"/>
	<path class="st3" d="M65.4,21.1c0-2.6,1.9-4.3,5.3-4.5l4-0.3V16c0-1.4-0.9-2.2-2.4-2.2c-1.9,0-2.9,0.7-2.9,2h-3.7
		c0-3.2,2.7-5.4,6.8-5.4c4.2,0,6.5,2.3,6.5,6.4v8.4h-3.9l-0.3-1.9c-0.5,1.3-2.4,2.3-4.5,2.3C67.3,25.7,65.4,23.9,65.4,21.1z
		 M74.7,20v-0.8l-2.2,0.2c-1.9,0.2-2.6,0.6-2.6,1.5c0,1,0.6,1.5,2,1.5C73.6,22.4,74.7,21.6,74.7,20z"/>
	<path class="st3" d="M83.4,25.3V14.7h-2.7V11h2.7V6.5h4.4V11h2.7v3.7h-2.7v10.7H83.4z"/>
	<path class="st3" d="M91.9,21.1c0-2.6,1.9-4.3,5.3-4.5l4-0.3V16c0-1.4-0.9-2.2-2.4-2.2c-1.9,0-2.9,0.7-2.9,2h-3.7
		c0-3.2,2.7-5.4,6.8-5.4c4.2,0,6.5,2.3,6.5,6.4v8.4h-3.9l-0.3-1.9c-0.5,1.3-2.4,2.3-4.5,2.3C93.8,25.7,91.9,23.9,91.9,21.1z
		 M101.3,20v-0.8L99,19.4c-1.9,0.2-2.6,0.6-2.6,1.5c0,1,0.6,1.5,2,1.5C100.1,22.4,101.3,21.6,101.3,20z"/>
	<path class="st3" d="M105,4.1h16.7v4.3h-6v16.9h-4.6V8.4h-6V4.1z"/>
	<path class="st3" d="M132.1,15.2h-1.4c-2.5,0-4,1.1-4,4v6.2h-4.4V11h4.2l0.2,2.1c0.6-1.4,1.9-2.4,3.8-2.4c0.5,0,1.1,0.1,1.7,0.2
		V15.2z"/>
	<path class="st3" d="M148.3,11v14.4h-4.2l-0.3-1.6c-0.9,1.2-2.7,2-4.4,2c-3.3,0-5.3-2.2-5.3-5.7v-9h4.4v7.4c0,2.4,0.8,3.4,2.6,3.4
		c1.9,0,2.7-1,2.7-3.3V11H148.3z"/>
	<path class="st3" d="M154.5,20.8c0.1,1,0.8,1.6,2.2,1.6c1.4,0,2-0.5,2-1.2c0-0.4-0.2-0.9-1.3-1.1l-2.6-0.6
		c-2.6-0.6-3.9-1.7-3.9-4.2c0-3,2.6-4.7,6-4.7c3.3,0,5.7,2,5.7,4.9h-4.2c0-1-0.6-1.6-1.7-1.6c-1,0-1.6,0.5-1.6,1.3
		c0,0.7,0.5,1,1.5,1.3l2.7,0.6c2.4,0.5,3.6,1.6,3.6,3.9c0,3.1-2.6,4.9-6.3,4.9c-3.8,0-6.2-2-6.2-4.9H154.5z"/>
	<path class="st3" d="M166.5,25.3V14.7h-2.7V11h2.7V6.5h4.4V11h2.7v3.7H171v10.7H166.5z"/>
</g>
</svg>
